<?xml version="1.0" encoding="UTF-8" standalone="no"?>
<!-- Created with Inkscape (http://www.inkscape.org/) -->

<svg
   xmlns:dc="http://purl.org/dc/elements/1.1/"
   xmlns:cc="http://creativecommons.org/ns#"
   xmlns:rdf="http://www.w3.org/1999/02/22-rdf-syntax-ns#"
   xmlns:svg="http://www.w3.org/2000/svg"
   xmlns="http://www.w3.org/2000/svg"
   xmlns:sodipodi="http://sodipodi.sourceforge.net/DTD/sodipodi-0.dtd"
   xmlns:inkscape="http://www.inkscape.org/namespaces/inkscape"
   width="210mm"
   height="155mm"
   viewBox="0 0 210 297"
   version="1.1"
   id="svg8"
   inkscape:version="0.92.4 (unknown)"
   sodipodi:docname="dd-geometries-bar.svg"
   inkscape:export-filename="/home/artyom/Desktop/dd-geometries-bar.svg.png"
   inkscape:export-xdpi="96"
   inkscape:export-ydpi="96">
  <defs
     id="defs2" />
  <sodipodi:namedview
     id="base"
     pagecolor="#ffffff"
     bordercolor="#666666"
     borderopacity="1.0"
     inkscape:pageopacity="0.0"
     inkscape:pageshadow="2"
     inkscape:zoom="0.5"
     inkscape:cx="-213.74829"
     inkscape:cy="479.43306"
     inkscape:document-units="mm"
     inkscape:current-layer="layer2"
     showgrid="false"
     inkscape:window-width="1920"
     inkscape:window-height="1015"
     inkscape:window-x="0"
     inkscape:window-y="0"
     inkscape:window-maximized="1" />
  <metadata
     id="metadata5">
    <rdf:RDF>
      <cc:Work
         rdf:about="">
        <dc:format>image/svg+xml</dc:format>
        <dc:type
           rdf:resource="http://purl.org/dc/dcmitype/StillImage" />
        <dc:title />
      </cc:Work>
    </rdf:RDF>
  </metadata>
  <g
     inkscape:groupmode="layer"
     id="layer2"
     inkscape:label="Layer 2"
     style="opacity:1">
    <path
       style="opacity:1;fill:#cccccc;fill-opacity:1;stroke:none;stroke-width:0.27999988;stroke-opacity:1"
       d="m 126.06106,57.110682 a 12.499995,12.499993 0 0 0 -12.50002,12.500045 v 21.625127 3.375002 0.006 24.990224 0.004 5.22707 19.77344 a 12.499995,12.499993 0 0 0 12.50002,12.50001 h 25.00001 a 49.999987,49.999981 0 0 0 26.09401,-7.4228 12.499997,12.499995 0 0 1 -1.09451,-5.07721 12.499997,12.499995 0 0 1 12.50002,-12.49999 12.499997,12.499995 0 0 1 5.09943,1.09813 49.999987,49.999981 0 0 0 7.40057,-26.09918 49.999987,49.999981 0 0 0 -49.99952,-50.000208 z m 25.00001,25.000106 a 12.499996,12.499993 0 0 1 1.06402,0.0532 24.999992,24.999988 0 0 1 23.936,24.947382 24.999992,24.999988 0 0 1 -25.00002,25.00003 12.499996,12.499993 0 0 1 -12.5,-12.50001 v -9.37514 -6.24975 -9.375164 a 12.499996,12.499993 0 0 1 12.5,-12.500578 z"
       id="path10-6-8-6-6"
       inkscape:connector-curvature="0" />
    <ellipse
       style="opacity:1;fill:#000000;fill-opacity:0.19607843;stroke:none;stroke-width:0.27999988;stroke-opacity:1"
       id="path10-6"
       cx="57.131088"
       cy="97.530983"
       rx="49.999989"
       ry="49.999981" />
    <ellipse
       style="opacity:1;fill:#000000;fill-opacity:0.19607843;stroke:none;stroke-width:0.29288694;stroke-opacity:1"
       id="path12-0"
       cx="57.131088"
       cy="97.530983"
       rx="24.999994"
       ry="24.99999" />
    <rect
       style="opacity:1;fill:#000000;fill-opacity:0.19607843;stroke:none;stroke-width:0.9999997;stroke-miterlimit:4;stroke-dasharray:none;stroke-opacity:1;paint-order:stroke fill markers"
       id="rect14-6"
       width="24.999994"
       height="99.999962"
       x="7.131072"
       y="47.530987" />
    <rect
       style="opacity:1;fill:#000000;fill-opacity:0.19607843;stroke:none;stroke-width:0.23596631"
       id="rect14-3-2"
       width="24.999994"
       height="74.999977"
       x="19.631092"
       y="60.031036" />
    <ellipse
       style="opacity:1;fill:#000000;fill-opacity:0.19607843;stroke:none;stroke-width:0.9999997;stroke-miterlimit:4;stroke-dasharray:none;stroke-opacity:1;paint-order:stroke fill markers"
       id="path6001-61"
       cx="32.131092"
       cy="60.031036"
       rx="12.499997"
       ry="12.499995" />
    <ellipse
       style="opacity:1;fill:#000000;fill-opacity:0.19607843;stroke:none;stroke-width:0.9999997;stroke-miterlimit:4;stroke-dasharray:none;stroke-opacity:1;paint-order:stroke fill markers"
       id="path6001-6-8"
       cx="32.131092"
       cy="135.03059"
       rx="12.499997"
       ry="12.499995" />
    <rect
       style="opacity:1;fill:#000000;fill-opacity:0.19607843;stroke:none;stroke-width:1.34528601;stroke-miterlimit:4;stroke-dasharray:none;stroke-opacity:1;paint-order:stroke fill markers"
       id="rect6018-7"
       width="24.999994"
       height="99.999954"
       x="32.131092"
       y="47.530987" />
    <ellipse
       style="opacity:1;fill:#000000;fill-opacity:0.19607843;stroke:none;stroke-width:0.9999997;stroke-miterlimit:4;stroke-dasharray:none;stroke-opacity:1;paint-order:stroke fill markers"
       id="path6001-5-9"
       cx="57.131088"
       cy="85.031067"
       rx="12.499997"
       ry="12.499995" />
    <ellipse
       style="opacity:1;fill:#000000;fill-opacity:0.19607843;stroke:none;stroke-width:0.9999997;stroke-miterlimit:4;stroke-dasharray:none;stroke-opacity:1;paint-order:stroke fill markers"
       id="path6001-5-3-2"
       cx="57.131088"
       cy="110.03084"
       rx="12.499997"
       ry="12.499995" />
    <rect
       style="opacity:1;fill:#000000;fill-opacity:0.19607843;stroke:none;stroke-width:0.67264313;stroke-miterlimit:4;stroke-dasharray:none;stroke-opacity:1;paint-order:stroke fill markers"
       id="rect6018-5-0"
       width="24.999994"
       height="24.99999"
       x="44.631084"
       y="85.031067" />
    <rect
       style="opacity:1;fill:#000000;fill-opacity:0.19607843;stroke:none;stroke-width:0.67264313;stroke-miterlimit:4;stroke-dasharray:none;stroke-opacity:1;paint-order:stroke fill markers"
       id="rect6018-5-5-5"
       width="24.999994"
       height="24.99999"
       x="32.131092"
       y="47.530987" />
    <rect
       style="opacity:1;fill:#000000;fill-opacity:0.19607843;stroke:none;stroke-width:0.67264313;stroke-miterlimit:4;stroke-dasharray:none;stroke-opacity:1;paint-order:stroke fill markers"
       id="rect6018-5-6-9"
       width="24.999994"
       height="24.99999"
       x="32.131092"
       y="122.53069" />
    <ellipse
       style="opacity:1;fill:#000000;fill-opacity:0.19607843;stroke:none;stroke-width:0.9999997;stroke-miterlimit:4;stroke-dasharray:none;stroke-opacity:1;paint-order:stroke fill markers"
       id="path6001-5-9-2"
       cx="94.631111"
       cy="135.03059"
       rx="12.499997"
       ry="12.499995" />
    <circle
       style="opacity:1;fill:#000000;fill-opacity:0.19607843;stroke:none;stroke-width:0.5;stroke-miterlimit:4;stroke-dasharray:none;stroke-opacity:1;paint-order:stroke fill markers"
       id="path6001-5-9-2-2"
       cx="94.631111"
       cy="135.03059"
       r="6.25" />
    <path
       style="opacity:1;fill:#808080;fill-opacity:1;fill-rule:nonzero;stroke:none;stroke-width:0.27999988;stroke-opacity:1"
       d="m 131.56768,47.056511 c -6.90357,-1e-5 -12.50003,5.596441 -12.50002,12.500011 0,8.333539 0,16.667092 0,25.000635 0,8.331933 0,16.663853 0,24.995753 v 0.004 25.00002 c -1e-5,6.90354 5.59645,12.49999 12.50002,12.49998 h 5.90093 v -0.006 c 0.14433,0.003 0.28869,0.005 0.43305,0.006 19.04114,-0.0121 35.05058,-14.29224 37.22974,-33.20828 -4.18689,4.61322 -9.94536,7.49697 -16.14733,8.08633 v -0.0165 c -0.80276,0.085 -1.60917,0.13103 -2.41639,0.13798 -5.98986,-0.005 -11.13448,-4.25782 -12.26538,-10.13995 -0.15279,-0.7773 -0.23135,-1.56737 -0.23461,-2.35954 v -9.37514 -6.249777 -9.375176 c -1e-5,-6.903587 5.59643,-12.500061 12.49999,-12.500061 0.35527,0.003 0.71026,0.0203 1.06402,0.0532 4.48369,0.207043 8.82895,1.617386 12.57959,4.082968 v -0.0403 c 0.24029,0.17254 0.47904,0.34722 0.71623,0.524 0.32486,0.225793 0.64431,0.459273 0.95809,0.700223 10.23298,7.5288 17.21637,18.670565 19.53162,31.162013 0.0398,0.19596 0.0784,0.39216 0.11576,0.58859 1.0037,-3.94572 1.52172,-7.99926 1.54254,-12.070592 -0.009,-6.490137 -1.28124,-12.916474 -3.74603,-18.920368 7.08661,8.861076 10.94869,19.868951 10.95178,31.21524 -0.0205,5.5748 -0.97306,11.10693 -2.81843,16.36748 1.04441,-1.4866 2.00702,-3.02902 2.88354,-4.62039 0.57512,-1.05195 1.11221,-2.12423 1.61024,-3.21479 0.22365,-0.4792 0.43968,-0.96192 0.64802,-1.44798 0.40734,-0.97399 0.78373,-1.96065 1.12861,-2.95847 0.18095,-0.51666 0.3534,-1.03625 0.51729,-1.55857 l 0.001,-0.003 c 0.0394,-0.11716 0.0783,-0.23447 0.11679,-0.35192 0.26246,-0.87388 0.50095,-1.75477 0.7152,-2.6417 0.1987,-0.79354 0.3779,-1.59183 0.53743,-2.39416 0.14187,-0.74843 0.26661,-1.5 0.37414,-2.25413 0.14418,-0.95485 0.26068,-1.91368 0.34933,-2.87528 0.0702,-0.79413 0.12135,-1.589833 0.15348,-2.386416 0.0359,-0.651473 0.059,-1.303586 0.0693,-1.955966 3e-5,-27.614181 -22.38545,-49.999937 -49.99952,-50.000187 z"
       id="path10-6-8-6"
       inkscape:connector-curvature="0"
       sodipodi:nodetypes="cccccccccccccccccccccccccccccccccccccccccccccc" />
    <circle
       style="opacity:1;fill:#808080;fill-opacity:1;stroke:none;stroke-width:0.5;stroke-miterlimit:4;stroke-dasharray:none;stroke-opacity:1;paint-order:stroke fill markers"
       id="path6001-5-9-2-2-6"
       cx="188.56062"
       cy="144.61111"
       r="6.25" />
  </g>
</svg>
